<svg width="25" height="24" viewBox="0 0 25 24" fill="none" xmlns="http://www.w3.org/2000/svg">
<path d="M18.3644 13.8291C18.3644 13.6266 18.1997 13.4619 17.9972 13.4619H6.97849C6.77599 13.4619 6.61129 13.6266 6.61129 13.8291V14.5635C6.61129 14.766 6.77599 14.9307 6.97849 14.9307H17.9972C18.1997 14.9307 18.3644 14.766 18.3644 14.5635V13.8291ZM18.3644 10.1571C18.3644 9.9546 18.1997 9.7899 17.9972 9.7899H6.97849C6.77599 9.7899 6.61129 9.9546 6.61129 10.1571V10.8915C6.61129 11.094 6.77599 11.2587 6.97849 11.2587H17.9972C18.1997 11.2587 18.3644 11.094 18.3644 10.8915V10.1571ZM21.3155 0.958199H17.6435V2.427H20.5811C21.7988 2.427 22.7843 3.4125 22.7843 4.6302V20.058C22.7843 21.2757 21.7988 22.2612 20.5811 22.2612H4.41889C3.20119 22.2612 2.21569 21.2757 2.21569 20.058V4.6302C2.21569 3.4125 3.20119 2.427 4.41889 2.427H7.34569V0.958199H3.68449C2.06179 0.958199 0.746887 2.2731 0.746887 3.8958V20.7924C0.746887 22.4151 2.06179 23.73 3.68449 23.73H21.3155C22.9382 23.73 24.2531 22.4151 24.2531 20.7924V3.8958C24.2531 2.2731 22.9382 0.958199 21.3155 0.958199ZM17.9972 17.1366H6.97849C6.77599 17.1366 6.61129 17.3013 6.61129 17.5038V18.2382C6.61129 18.4407 6.77599 18.6054 6.97849 18.6054H17.9972C18.1997 18.6054 18.3644 18.4407 18.3644 18.2382V17.5038C18.3644 17.3013 18.2024 17.1366 17.9972 17.1366Z" fill="#23D899"/>
</svg>
